<?xml version="1.0" encoding="utf-8"?>
<!-- Generator: Adobe Illustrator 16.0.0, SVG Export Plug-In . SVG Version: 6.00 Build 0)  -->
<!DOCTYPE svg PUBLIC "-//W3C//DTD SVG 1.1//EN" "http://www.w3.org/Graphics/SVG/1.1/DTD/svg11.dtd">
<svg version="1.1" xmlns="http://www.w3.org/2000/svg" xmlns:xlink="http://www.w3.org/1999/xlink" x="0px" y="0px"
	 width="595.28px" height="841.89px" viewBox="0 0 595.28 841.89" enable-background="new 0 0 595.28 841.89" xml:space="preserve">
<g id="fond">
	<circle fill="none" stroke="#010202" stroke-width="3" stroke-miterlimit="10" cx="311.59" cy="254.597" r="247.488"/>
</g>
<g id="couleur">
	<line fill="none" x1="225.4" y1="446.61" x2="225.33" y2="446.67"/>
	<line fill="none" x1="273.33" y1="403.67" x2="268.92" y2="407.62"/>
	<line fill="none" x1="264.83" y1="498.67" x2="262.38" y2="495.35"/>
	<path fill="none" d="M210,436.67c0,0,6.52,3.01,12.69,7.73"/>
	<line fill="none" x1="201.33" y1="476" x2="200.69" y2="474.86"/>
	<path fill="none" d="M271.01,496.86c-0.27,1.359-0.61,2.58-1.01,3.64"/>
	<path fill="none" d="M359.667,461"/>
	<path stroke="#000000" stroke-miterlimit="10" d="M351,80.75c0,0,0.1,0.98-2.41,4.86c-0.18,0.28-0.38,0.58-0.59,0.89
		c-3.12,4.62-14.38,3.75-14.38,3.75c-7.24-2.25-32.74,2.13-32.74,2.13c-10.5,1.5-22.76-3.76-22.76-3.76c-1.1-0.12-2.11-0.48-3.03-1
		c-4.55-2.52-6.97-8.74-6.97-8.74l2.38-2.76c2.38-1.87-4.5-4.87-4.5-4.87c6.12,0.13,5-3.25,5-3.25c0.5-3.25-3.12-5.75-3.12-5.75
		c3.5-0.5,2.62-6.37,2.62-6.37c3.12,0.37,4.5-0.5,4.5-0.5c2.19-2.2-2.15-7.84-2.37-8.12c1.14,1.23,4.49,0.12,4.49,0.12l0.5-4.76
		c2.13,2.5,5.5,1.13,5.5,1.13c2.13-0.37,1.76-7.75,1.76-7.75c0,1.62,3.87,2,3.87,2c1,0.75,1.75-0.88,1.75-0.88c2.88,1,6.5-6,6.5-6
		c2.25,2.38,7.25,2.76,7.25,2.76c3.63,0.87,6.75-3.76,6.75-3.76c1.88,3.76,4.75,4.13,4.75,4.13c1.63,0.25,2.37-3,2.37-3
		c1.13,3.13,3.88,2.5,3.88,2.5c2.62,0.13,6.75,5.75,6.75,5.75l1.63,0.12c15.62,1.5,21.87,19.5,21.87,19.5
		c-2.75-1-3.75,0.76-3.75,0.76c-1.38,0.62,0,3,0,3c2.5-0.38,4.5,1.62,4.5,1.62c-0.12,1.12,2,4.62-0.12,5.25
		c-2.13,0.63-1.26,2.37-1.26,2.37l3.13,1.76c-6.75,2.37-8.25,7.5-6.25,6.87S351,80.75,351,80.75z"/>
	<path fill="none" d="M219.5,162.84c-0.11,1.04-0.19,2.1-0.25,3.16"/>
	<path fill="none" d="M407.5,164.5c-0.12-1.41-0.28-2.8-0.46-4.17"/>
	<path fill="none" d="M258.93,202.83c-0.84,0.17-1.68,0.35-2.52,0.54c0.18-0.43,0.33-0.76,0.43-0.99
		C257.45,202.66,258.14,202.82,258.93,202.83z"/>
	<path fill="#882133" stroke="#882133" stroke-miterlimit="10" d="M405.25,150.48C370.24,128.91,313,128.67,313,128.67
		c-40.77-0.57-81.1,18.73-91.93,24.33c0.36-1.65,0.78-3.27,1.26-4.85c10.96-7.74,44.42-28.59,86.5-28.32c0,0,50.04-1.01,93.06,19.56
		C403.2,142.89,404.33,146.58,405.25,150.48z"/>
	<path fill="none" d="M227.333,159.333l2,41.5c0,0,0.833,8.167,5.5,9"/>
	<path fill="none" d="M259,202.83c-0.02,0-0.04,0-0.06,0"/>
	<path fill="none" d="M256.84,202.38c-4.63-2.13-4.51-11.05-4.51-11.05l0.34-42.66"/>
	<path fill="none" d="M287.833,139.833l0.5,50c0,0,0.5,8.333,5.167,8.667"/>
	<path fill="none" d="M340.167,138.667l-0.833,50.833c0,0-0.667,8.333-5.167,8.333"/>
	<path fill="none" d="M375.334,145.833c0,0-0.334,48.833-0.334,48s-1.334,9.833-8.5,8.5"/>
	<path fill="none" d="M400.167,156.333l-1.333,47c0,0-0.5,9.333-8.5,7.167"/>
	<path fill="#FFFFFF" d="M298.5,248.5l-16.85,0.18l-4.13,0.05l-2.27,0.02c-10.5,0-12.5-6.5-12.5-6.5c5.18-6.6,11.26-7.73,14.3-7.83
		c1.22-0.04,1.95,0.08,1.95,0.08c1.47,0,2.84,0.16,4.12,0.44C294.04,237.29,298.5,248.5,298.5,248.5z"/>
	<path fill="none" d="M262.75,242.25"/>
	<path fill="none" d="M305.75,268.25c0,0-4.75,7,0,10.75c0,0,9.75,7,19.25,0.25c0,0,5-3.5,1.25-10.75"/>
	<path fill="none" d="M322,241.25c0,0-2.25,13.25,0.75,16.75"/>
	<path fill="none" d="M257,202c0,0-0.06,0.13-0.16,0.38"/>
	<path fill="none" d="M230.18,231.3l-0.51-5.3c0.43-0.98,0.87-1.88,1.3-2.71"/>
	<line fill="none" x1="230.33" y1="232.83" x2="230.18" y2="231.31"/>
	<path fill="none" d="M395.67,230.33c1.13-0.19,2.12-0.27,2.96-0.27l0.04-0.56c0-2.5-1.84-7.83-1.84-7.83l-0.48,0.66"/>
	<path fill="none" d="M248.5,367.25c0,0-0.01-0.07-0.02-0.2"/>
	<line fill="none" x1="404.86" y1="217.39" x2="404.67" y2="215.33"/>
	<path fill="none" d="M392.85,438.26c-0.01,0.01-0.01,0.021-0.029,0.021C392.84,438.28,392.84,438.27,392.85,438.26"/>
	<path fill="none" d="M396,222.25"/>
	<path fill="none" d="M398.5,215.5"/>
	<path fill="none" d="M370.83,379.17c-0.03-0.83-0.05-1.68-0.05-2.56"/>
	<path fill="none" d="M270.17,408c-0.42-0.09-0.84-0.22-1.25-0.38"/>
	<path fill="none" d="M251.54,372.56C251.18,370.95,251,370,251,370"/>
	<path fill="#463615" d="M281.566,248.183c3.09-0.861,5.35-3.547,5.35-6.72c0-2.649-1.56-4.951-3.88-6.14
		c-1.28-0.262-2.65-0.411-4.12-0.411c0,0-0.73-0.113-1.95-0.075c-2.94,0.945-5.05,3.557-5.05,6.626c0,3.229,2.34,5.953,5.52,6.767
		L281.566,248.183z"/>
	<ellipse cx="279.333" cy="241.666" rx="2.775" ry="2.833"/>
	<circle fill="#FFFFFF" cx="281.917" cy="240.167" r="1.833"/>
	<path fill="#FFFFFF" d="M369.38,242.12c0,0-2,6.5-12.5,6.5l-2.27-0.02l-4.141-0.04l-16.85-0.18c0,0,4.46-11.21,15.38-13.57
		c1.29-0.27,2.65-0.43,4.12-0.43c0,0,0.74-0.13,1.96-0.09C358.12,234.4,364.2,235.52,369.38,242.12z"/>
	<path fill="none" d="M369.375,242.125"/>
	<path fill="#463615" d="M354.688,248.104c3.181-0.814,5.521-3.538,5.521-6.767c0-3.069-2.11-5.681-5.051-6.626
		c-1.22-0.038-1.949,0.075-1.949,0.075c-1.471,0-2.84,0.149-4.121,0.411c-2.319,1.189-3.879,3.491-3.879,6.14
		c0,3.173,2.26,5.859,5.35,6.72L354.688,248.104z"/>
	<ellipse cx="352.792" cy="241.541" rx="2.775" ry="2.833"/>
	<circle fill="#FFFFFF" cx="350.208" cy="240.042" r="1.833"/>
	<path fill="none" d="M391.75,439.25c0,0,0.39-0.32,1.07-0.97C392.5,438.74,392.14,439.08,391.75,439.25z"/>
	<path fill="#B88864" d="M389.5,239.83c0,0-7.07-24.76-13.66-34.39c-14.34-4.39-35.149-8.22-62.01-6.61c0,0-27.28-0.83-53.39,4.5
		c-0.01,0-0.01,0-0.01,0c-0.84,0.17-1.68,0.35-2.52,0.54h-0.01c-2.4,5.59-11.43,26.84-13.73,36.63c0,0-4.34,17.67,1.33,32.67
		c0,0,23,35.66,27.67,41c0,0,11,18.42,31.2,23.65c3.64,0.94,7.58,1.45,11.8,1.35c0,0,5.11,1.42,13.45-1.29
		c7.33-2.37,17.149-7.91,28.21-20.38c0,0,29-34.33,31.67-48.33C389.5,269.17,394.5,254.5,389.5,239.83z M283.15,249.18l-4.13,0.05
		l-2.27,0.02c-10.5,0-12.5-6.5-12.5-6.5c5.18-6.6,11.26-7.73,14.3-7.83c1.22-0.04,1.95,0.08,1.95,0.08c1.47,0,2.84,0.16,4.12,0.44
		C295.54,237.79,300,249,300,249L283.15,249.18z M299,224.5c-0.75-1.75-8-3.75-8-3.75l-25.25,0.5c-2.25,0-9.25,5.5-9.25,5.5
		l3.75-6.75c3.25-4.5,11-3.75,11-3.75l22.5-0.25c7.5,0.5,9.5,4.75,9.5,4.75C304.5,228.75,299,224.5,299,224.5z M358.38,249.12
		l-2.27-0.02l-4.141-0.04l-16.85-0.18c0,0,4.46-11.21,15.38-13.57c1.29-0.27,2.65-0.43,4.12-0.43c0,0,0.74-0.13,1.96-0.09
		c3.04,0.11,9.12,1.23,14.3,7.83C370.88,242.62,368.88,249.12,358.38,249.12z M367.68,221.25l-25.25-0.5c0,0-7.25,2-8,3.75
		c0,0-5.5,4.25-4.25-3.75c0,0,2-4.25,9.5-4.75l22.5,0.25c0,0,7.75-0.75,11,3.75l3.75,6.75
		C376.93,226.75,369.93,221.25,367.68,221.25z"/>
	<path fill="none" d="M298.5,248.5l-16.85,0.18l-4.13,0.05l-2.27,0.02c-10.5,0-12.5-6.5-12.5-6.5c5.18-6.6,11.26-7.73,14.3-7.83
		c1.22-0.04,1.95,0.08,1.95,0.08c1.47,0,2.84,0.16,4.12,0.44C294.04,237.29,298.5,248.5,298.5,248.5z"/>
	<path fill="#0B0B0C" stroke="#000000" stroke-miterlimit="10" d="M298.5,224c-0.75-1.75-8-3.75-8-3.75l-25.25,0.5
		c-2.25,0-9.25,5.5-9.25,5.5l3.75-6.75c3.25-4.5,11-3.75,11-3.75l22.5-0.25c7.5,0.5,9.5,4.75,9.5,4.75
		C304,228.25,298.5,224,298.5,224z"/>
	<path fill="none" d="M369.38,242.12c0,0-2,6.5-12.5,6.5l-2.27-0.02l-4.141-0.04l-16.85-0.18c0,0,4.46-11.21,15.38-13.57
		c1.29-0.27,2.65-0.43,4.12-0.43c0,0,0.74-0.13,1.96-0.09C358.12,234.4,364.2,235.52,369.38,242.12z"/>
	<path fill="#0B0B0C" stroke="#000000" stroke-miterlimit="10" d="M376.43,226.25c0,0-7-5.5-9.25-5.5l-25.25-0.5c0,0-7.25,2-8,3.75
		c0,0-5.5,4.25-4.25-3.75c0,0,2-4.25,9.5-4.75l22.5,0.25c0,0,7.75-0.75,11,3.75L376.43,226.25z"/>
	<path fill="none" d="M386.46,483.16l-27.229,1.89c0.18,3.8,0.52,7.38,1.14,10.15c8.939-1.76,17.71-3.99,26.29-6.66
		C386.62,486.98,386.55,485.15,386.46,483.16z M348.5,79.75c-2,0.63-0.5-4.5,6.25-6.87l-3.13-1.76c0,0-0.87-1.74,1.26-2.37
		c2.12-0.63,0-4.13,0.12-5.25c0,0-2-2-4.5-1.62c0,0-1.38-2.38,0-3c0,0,1-1.76,3.75-0.76c0,0-6.25-18-21.87-19.5l-1.63-0.12
		c0,0-4.13-5.62-6.75-5.75c0,0-2.75,0.63-3.88-2.5c0,0-0.74,3.25-2.37,3c0,0-2.87-0.37-4.75-4.13c0,0-3.12,4.63-6.75,3.76
		c0,0-5-0.38-7.25-2.76c0,0-3.62,7-6.5,6c0,0-0.75,1.63-1.75,0.88c0,0-3.87-0.38-3.87-2c0,0,0.37,7.38-1.76,7.75
		c0,0-3.37,1.37-5.5-1.13l-0.5,4.76c0,0-3.35,1.11-4.49-0.12c0.22,0.28,4.56,5.92,2.37,8.12c0,0-1.38,0.87-4.5,0.5
		c0,0,0.88,5.87-2.62,6.37c0,0,3.62,2.5,3.12,5.75c0,0,1.12,3.38-5,3.25c0,0,6.88,3,4.5,4.87l-2.38,2.76c0,0,2.42,6.22,6.97,8.74
		c0.92,0.52,1.93,0.88,3.03,1c0,0,12.26,5.26,22.76,3.76c0,0,25.5-4.38,32.74-2.13c0,0,11.26,0.87,14.38-3.75
		c0.21-0.31,0.41-0.61,0.59-0.89c2.51-3.88,2.41-4.86,2.41-4.86S350.5,79.12,348.5,79.75z M268.6,445.79
		C261.25,440.75,252,428,252,428l0.25,16.25c-3.25,0-10.75-9.75-10.75-9.75l-1.25,5.5l-3.31-3.73l-6.29,5.631l-5.25,4.71
		c1.39,1.21,2.69,2.5,3.84,3.87c0.15,0.17,0.29,0.34,0.43,0.52l3.79,5.13l28.92,39.22c2.86,0.561,5.73,1.061,8.63,1.511
		C273.31,485.47,271.28,464.39,268.6,445.79z M256.84,202.38c-0.1,0.23-0.25,0.56-0.43,0.99c0.84-0.19,1.68-0.37,2.52-0.54
		C258.14,202.82,257.45,202.66,256.84,202.38z"/>
	<path fill="#FFFFFF" d="M262.38,495.35c-20.82-4.029-40.73-10.609-59.39-19.399c10.25-1.63,24.57-14.24,30.47-19.82L262.38,495.35z
		"/>
	<path fill="#FFFFFF" d="M229.24,450.48c-4.39,4.47-19.44,18.949-31.03,19.979l-4.7-8.35l29.18-17.71
		c0.92,0.689,1.83,1.43,2.71,2.21C226.79,447.82,228.09,449.11,229.24,450.48z"/>
	<path fill="#FFFFFF" d="M401.89,139.39c-43.02-20.57-93.06-19.56-93.06-19.56c-42.08-0.27-75.54,20.58-86.5,28.32
		c1.02-3.5,2.26-6.85,3.68-10.06c14.24-9.16,44.57-25.25,81.57-25.01c0,0,48.46-0.98,91,18.59
		C399.78,134.13,400.88,136.7,401.89,139.39z"/>
	<path fill="#FFFFFF" d="M412.67,211.67c0,0,0.67,7.11-7.81,5.72c-1.9-0.31-4.261-1.04-7.19-2.39c0,0-0.15-0.1-0.439-0.28
		c-1.66-1.04-8.07-4.82-18.98-8.52c-1.24-0.42-2.55-0.84-3.91-1.26c-14.34-4.39-35.149-8.22-62.01-6.61c0,0-27.28-0.83-53.39,4.5
		c-0.01,0-0.01,0-0.01,0c-0.79-0.01-1.48-0.17-2.09-0.45c-0.1,0.23-0.25,0.56-0.43,0.99h-0.01c-1.12,0.24-2.22,0.49-3.32,0.77
		c-8.34,2.04-16.34,4.77-23.02,8.46c-0.25,0.13-0.49,0.26-0.73,0.4c0,0-1.63,0.98-3.81,1.82c-4.3,1.64-10.75,2.69-11.19-5.49
		l-1.66-42.66c0,0,2.44-1.51,6.83-3.83c14.55-7.7,50.56-24.4,90.5-25.17c0,0,12.83-0.61,30.17,1.18
		c20.57,2.11,47.48,7.6,66.87,21.48c2.45,1.75,4.78,3.64,6.96,5.67L412.67,211.67z"/>
	<path fill="#211F20" d="M268.92,407.62l-5.97,5.34v0.01l-26.01,23.299l-6.29,5.631c-6.95-2.851-20.25-19.091-25.3-25.48
		l14.84-14.08l31.35-29.78C253.28,380.4,259.21,403.76,268.92,407.62z"/>
	<path fill="#0B0B0C" stroke="#090B0B" stroke-miterlimit="10" d="M416.5,372.25c0,0-0.75-50-5.75-70.75c0,0-6-37.5-3.75-61.5
		l-2.14-22.61c-1.9-0.31-4.261-1.04-7.19-2.39c0,0-0.15-0.1-0.439-0.28l-0.881,7.61l-2.18,3c-1.5-1.5-2.84,1.17-2.84,1.17
		c-1.28-3.09-9.43-15.03-13.08-20.3c-1.24-0.42-2.55-0.84-3.91-1.26c6.59,9.63,13.66,34.39,13.66,34.39c5,14.67,0,29.34,0,29.34
		c-2.67,14-31.67,48.33-31.67,48.33c-11.061,12.47-20.88,18.01-28.21,20.38c-0.061,8.22,1.34,24.72,12.979,29.01
		c0.131-1.15,0.21-2.39,0.23-3.72c0,0,3.77-0.32,8.76,0.52c6.07,1.02,13.96,3.76,19.08,10.88c0,0,0,0,0,0.01
		c0.57,0.79,1.11,1.63,1.61,2.53c-0.2-14.09,1.72-32.86,1.72-32.86c6.5-1,7.25,9.25,7.25,9.25c3.75-7.25,6.75-40.25,6.75-40.25
		c3.25,2,5.25,7.75,5.25,7.75l0.25-10c8.5,11,2,60.25,2,60.25c8.75-15,4-88.25,4-88.25c0.25-4,4.75-16.5,4.75-16.5
		s15.7,84.6,7.63,144.67c0.17-0.44,0.34-0.89,0.5-1.34c0.08-0.23,0.17-0.46,0.25-0.69c0.09-0.24,0.17-0.47,0.25-0.71
		c0.11-0.3,0.21-0.6,0.311-0.91c0.189-0.57,0.38-1.15,0.56-1.74c0.2-0.64,0.39-1.28,0.58-1.93c0.16-0.56,0.32-1.13,0.47-1.7
		c0.11-0.4,0.21-0.8,0.311-1.2c0.13-0.49,0.25-0.99,0.359-1.49c0.011-0.04,0.021-0.07,0.03-0.11c0.23-0.99,0.45-2.01,0.65-3.04
		c0.09-0.5,0.199-1.01,0.29-1.52c0.02-0.08,0.04-0.16,0.05-0.24c0.01-0.08,0.029-0.15,0.04-0.23c0.02-0.16,0.05-0.31,0.08-0.47
		c0.12-0.71,0.239-1.42,0.34-2.14c0.05-0.33,0.1-0.65,0.14-0.97c0.05-0.32,0.09-0.65,0.13-0.98c0.07-0.46,0.12-0.93,0.17-1.41
		c0-0.03,0.011-0.05,0.011-0.08c0.069-0.59,0.13-1.19,0.189-1.8c0.08-0.79,0.141-1.58,0.2-2.39v-0.03c0.06-0.75,0.1-1.51,0.14-2.28
		v-0.03c0.011-0.19,0.021-0.39,0.03-0.59c0.021-0.46,0.04-0.93,0.05-1.4c0.01-0.38,0.021-0.77,0.03-1.16
		C416.58,376.19,416.57,374.24,416.5,372.25z M403.83,235.33c0,0-1.16,21.5-0.83,22c-1,6.17-6.33,10.67-6.33,10.67v6.17
		c0,3.83-2.5,5.33-2.5,5.33c-5.84,2.17-4.34-4.33-4.34-4.33c0.5-3.67,2.84-6.34,2.84-6.34l1-11.66c4.5-6.34,4.83-25,4.83-25l0.06-1
		l0.07-1.11C405.14,230.12,403.83,235.33,403.83,235.33z"/>
	<path fill="#0B0B0C" stroke="#090B0B" stroke-miterlimit="10" d="M271.67,313.67c-4.67-5.34-27.67-41-27.67-41
		c-5.67-15-1.33-32.67-1.33-32.67c2.3-9.79,11.33-31.04,13.73-36.63c-1.12,0.24-2.22,0.49-3.32,0.77
		c-10.42,15.7-11.38,18.09-13.41,25.19l-2-14.66c0,0-3.38,2.34-6.7,8.62l-0.91-10.69c-0.25,0.13-0.49,0.26-0.73,0.4
		c0,0-1.63,0.98-3.81,1.82l0.73,15.68c0,0-5.5,5-2.5,22.5c0,0,4,13.75-0.25,32.5c0,0-5.25,31-5.5,44c0,0-0.57,7.8-0.69,19.81
		c3.57-28.85,11.19-78.81,11.19-78.81s1,8.25,4.5,11.25c0,0-3.5,76,1,82.25c0,0,0.75-32.25,4-33.75c0,0,8,9.5,8,16.5l2.48,20.3
		c-0.18-2.29-1.7-23.54,3.27-27.8c0,0,4.25,7.5,4.25,9.5c0,0,2.5-4,4.5-0.25c0,0,6,10,9,12.5c0,0,3-5.25,4.25-4.75l0.79,6.31
		l7.84-0.23L294,362c0,0,0.6,0.81,1.7,2.1c5.359-3.82,6.71-18.99,7.17-26.78C282.67,332.09,271.67,313.67,271.67,313.67z
		 M235.33,278.33c0,0-3-4.33-2-12.33c0,0-7.66-4-6.66-17.33v-10c0,0,0.26-5.95,3.51-7.36v-0.01c0.44-0.19,0.93-0.3,1.49-0.3l2,1.33
		c0,0,0.33,9.34,1.33,12c-0.33,0.67,3.33,26,6,30.34C241,274.67,243.67,283,235.33,278.33z"/>
	<path fill="#272928" d="M252,428l0.25,16.25c-3.25,0-10.75-9.75-10.75-9.75l-1.25,5.5l-3.31-3.73l26.01-23.299
		c1.17,5.89,3.6,18.64,5.65,32.82C261.25,440.75,252,428,252,428z"/>
	<path fill="#272928" d="M397.23,214.72l-0.881,7.61l-2.18,3c-1.5-1.5-2.84,1.17-2.84,1.17c-1.28-3.09-9.43-15.03-13.08-20.3
		C389.16,209.9,395.57,213.68,397.23,214.72z"/>
	<path fill="#272928" d="M410.38,410.67c0,0.01,0,0.01,0,0.01c-0.01,0-0.01,0-0.01,0.01v0.02c0,0.01-0.01,0.02-0.01,0.03v0.02
		c-5.971,15.55-14.511,24.63-17.511,27.5c3.4-4.83,3.4-23.51,3.4-23.51c0,5.16-9.09,17.07-13.39,22.41
		c-3.2-22.51-9.19-52.49-9.19-52.49c-0.64-3.1-1.63-5.77-2.89-8.06c-0.2-14.09,1.72-32.86,1.72-32.86c6.5-1,7.25,9.25,7.25,9.25
		c3.75-7.25,6.75-40.25,6.75-40.25c3.25,2,5.25,7.75,5.25,7.75l0.25-10c8.5,11,2,60.25,2,60.25c8.75-15,4-88.25,4-88.25
		c0.25-4,4.75-16.5,4.75-16.5S418.45,350.6,410.38,410.67z"/>
	<path fill="#272928" d="M274.54,362.56l-3.87,0.11C259,364,256,368.33,256,368.33l-4.46,4.23l-31.35,29.78
		c-2.59-19.56-3.03-39.09-2.88-52.99v-0.04c3.57-28.85,11.19-78.81,11.19-78.81s1,8.25,4.5,11.25c0,0-3.5,76,1,82.25
		c0,0,0.75-32.25,4-33.75c0,0,8,9.5,8,16.5l2.48,20.3c-0.18-2.29-1.7-23.54,3.27-27.8c0,0,4.25,7.5,4.25,9.5c0,0,2.5-4,4.5-0.25
		c0,0,6,10,9,12.5c0,0,3-5.25,4.25-4.75L274.54,362.56z"/>
	<path fill="#882133" d="M407.04,160.33c-19.39-13.88-46.3-19.37-66.87-21.48c-17.34-1.79-30.17-1.18-30.17-1.18
		c-39.94,0.77-75.95,17.47-90.5,25.17c0.31-3.39,0.85-6.67,1.57-9.84c10.83-5.6,51.16-24.9,91.93-24.33c0,0,57.24,0.24,92.25,21.81
		C406,153.63,406.6,156.91,407.04,160.33z"/>
	<path fill="#882133" d="M398.58,131.67c-42.54-19.57-91-18.59-91-18.59c-37-0.24-67.33,15.85-81.57,25.01
		c2.14-4.84,4.68-9.35,7.47-13.54c13.21-7.18,41.67-19.67,80.52-20.38c0,0,41.32-2.69,80.14,19.4
		C395.72,126.13,397.21,128.83,398.58,131.67z"/>
	<path fill="#882133" stroke="#882133" stroke-miterlimit="10" d="M394.14,123.57c-38.819-22.09-80.14-19.4-80.14-19.4
		c-38.85,0.71-67.31,13.2-80.52,20.38c13.53-20.32,32.99-32.99,41.61-37.93c0.92,0.52,1.93,0.88,3.03,1c0,0,12.26,5.26,22.76,3.76
		c0,0,25.5-4.38,32.74-2.13c0,0,11.26,0.87,14.38-3.75c0.21-0.31,0.41-0.61,0.59-0.89C355.95,87.36,379.04,99.05,394.14,123.57z"/>
	<path fill="#882133" d="M386.46,483.16l-27.229,1.89C358.72,473.96,359.67,461,359.67,461l3-4.33c0.67-0.71,1.3-1.41,1.9-2.09
		c5.88-1.59,14.8-3.73,19.949-3.6c0.061,0.699,0.101,1.369,0.15,2.02C384.67,453,385.92,471.05,386.46,483.16z"/>
	<path fill="#882133" stroke="#882133" stroke-miterlimit="10" d="M328.5,398.17c-28.43-5.75-42.39-28.67-46.12-35.84L294,362
		c0,0,0.6,0.81,1.7,2.1c4.439,5.22,17,18.24,30.63,16.9c0,0,12.87,2.34,14.77-14.61c0.131-1.15,0.21-2.39,0.23-3.72
		c0,0,3.77-0.32,8.76,0.52C353.47,383.77,328.5,398.17,328.5,398.17z"/>
	<path fill="#882133" d="M233.46,456.13c-5.9,5.58-20.22,18.19-30.47,19.82c-0.77-0.36-1.54-0.72-2.3-1.09l-2.48-4.4
		c11.59-1.03,26.64-15.51,31.03-19.979c0.15,0.17,0.29,0.34,0.43,0.52L233.46,456.13z"/>
	<path fill="#882133" d="M230.65,441.9l-5.25,4.71c-0.88-0.78-1.79-1.521-2.71-2.21l-29.18,17.71l-4.18-7.44
		c0,0-8.66-13.34,0.67-23.67l15.35-14.58C210.4,422.81,223.7,439.05,230.65,441.9z"/>
	<path fill="#211F20" d="M364.57,454.58c9.06-10.45,8.76-16.91,8.76-16.91c1-8.67-5-14-5-14c-5.33-4-6.33-16.5-6.33-16.5
		l-0.56-15.72c4.22,1.86,5.89,0.05,5.89,0.05c4.17-3,3.13-11.63,1.84-17.42c0.57,0.79,1.11,1.63,1.61,2.53
		c1.26,2.29,2.25,4.96,2.89,8.06c0,0,5.99,29.98,9.19,52.49c0.729,5.1,1.31,9.81,1.649,13.71c0,0.04,0.01,0.07,0.01,0.11
		C379.37,450.85,370.45,452.99,364.57,454.58z"/>
	<path fill="#882133" stroke="#882133" stroke-miterlimit="10" d="M373.33,437.67c0,0,0.3,6.46-8.76,16.91
		c-0.601,0.68-1.23,1.38-1.9,2.09l-3,4.33c0,0-0.95,12.96-0.439,24.05c0.18,3.8,0.52,7.38,1.14,10.15
		C344.4,498.35,327.89,500,311,500c-13.6,0-26.96-1.07-39.98-3.14h-0.01c2.3-11.391,0.27-32.471-2.41-51.07
		c-2.05-14.18-4.48-26.93-5.65-32.82v-0.01l5.97-5.34c-9.71-3.86-15.64-27.22-17.38-35.06l4.46-4.23c0,0,3-4.33,14.67-5.66
		l3.87-0.11l7.84-0.23c3.73,7.17,17.69,30.09,46.12,35.84c0,0,24.97-14.4,21.59-34.98c6.07,1.02,13.96,3.76,19.08,10.88
		c0,0,0,0,0,0.01c1.29,5.79,2.33,14.42-1.84,17.42c0,0-1.67,1.81-5.89-0.05l0.56,15.72c0,0,1,12.5,6.33,16.5
		C368.33,423.67,374.33,429,373.33,437.67z"/>
	<path fill="#B88864" d="M403.83,235.33c0,0-1.16,21.5-0.83,22c-1,6.17-6.33,10.67-6.33,10.67v6.17c0,3.83-2.5,5.33-2.5,5.33
		c-5.84,2.17-4.34-4.33-4.34-4.33c0.5-3.67,2.84-6.34,2.84-6.34l1-11.66c4.5-6.34,4.83-25,4.83-25l0.06-1l0.07-1.11
		C405.14,230.12,403.83,235.33,403.83,235.33z"/>
	<path fill="#B88864" d="M235.33,278.33c0,0-3-4.33-2-12.33c0,0-7.66-4-6.66-17.33v-10c0,0,0.26-5.95,3.51-7.36v-0.01
		c0.44-0.19,0.93-0.3,1.49-0.3l2,1.33c0,0,0.33,9.34,1.33,12c-0.33,0.67,3.33,26,6,30.34C241,274.67,243.67,283,235.33,278.33z"/>
	<path fill="#B88864" d="M341.1,366.39C339.2,383.34,326.33,381,326.33,381c-13.63,1.34-26.19-11.68-30.63-16.9
		c5.359-3.82,6.71-18.99,7.17-26.78c3.64,0.94,7.58,1.45,11.8,1.35c0,0,5.11,1.42,13.45-1.29
		C328.06,345.6,329.46,362.1,341.1,366.39z"/>
	<path fill="#272928" d="M253.08,204.14c-10.42,15.7-11.38,18.09-13.41,25.19l-2-14.66c0,0-3.38,2.34-6.7,8.62l-0.91-10.69
		C236.74,208.91,244.74,206.18,253.08,204.14z"/>
	<line fill="none" x1="396.35" y1="222.33" x2="395.75" y2="227.5"/>
	<g>
		<path fill="none" d="M298.064,300.329"/>
		<path fill="#FFFFFF" d="M341.501,299.493c-1.13,1.114-2.477,2.191-3.918,3.216c-6.146,4.336-14.031,7.542-14.031,7.542
			c-6.185,2.368-13.882,0.815-13.882,0.815c-4.105-0.697-8.32-4.829-8.32-4.829c-0.593-0.817-1.402-1.544-2.231-2.154
			c-1.266-0.938-2.578-1.601-3.205-1.902c0.754,0.211,2.068,0.56,3.856,0.924c6.559,1.322,19.494,2.823,34.655-1.304
			C336.731,301.169,339.099,300.414,341.501,299.493z"/>
		<path fill="none" d="M341.501,299.493c0.214-0.075,0.438-0.157,0.653-0.247c0.087-0.03,0.169-0.068,0.257-0.098"/>
		<path fill="none" d="M295.175,301.95c0,0,0.014,0.002,0.05,0.016c0.084,0.03,0.304,0.097,0.624,0.188
			c0.008,0.001,0.014,0.009,0.021,0.011c0.007,0.001,0.022,0.004,0.029,0.005c0.005,0.008,0.014,0.01,0.014,0.01"/>
		<path fill="none" d="M341.555,299.443c-0.019,0.02-0.035,0.031-0.054,0.05"/>
		<path fill="none" d="M338.584,297.879c0,0,5.432-0.136,4.269,5.263"/>
		<path fill="#D11C42" d="M334.425,301.799c-15.161,4.127-28.097,2.626-34.655,1.304c0.639-0.504,5.816-4.422,11.388-2.604
			c0,0,1.816-1.557,5.473-1.123L334.425,301.799z"/>
		<line fill="none" stroke="#010202" stroke-miterlimit="10" x1="334.636" y1="301.827" x2="334.425" y2="301.799"/>
		<path fill="#D11C42" d="M337.583,302.709c-9.039,15.365-21.034,13.627-21.034,13.627c-2.018,0.158-6.98-0.625-6.98-0.625
			c-6.526-1.511-9.531-8.862-10.45-11.629c0.829,0.61,1.639,1.337,2.231,2.154c0,0,4.215,4.132,8.32,4.829
			c0,0,7.697,1.553,13.882-0.815C323.552,310.25,331.438,307.045,337.583,302.709z"/>
		<path fill="none" d="M337.688,302.532c-0.033,0.062-0.072,0.122-0.104,0.177"/>
		<path fill="none" d="M299.118,304.082c-0.215-0.663-0.312-1.06-0.312-1.06"/>
		<path fill="none" d="M300.047,304.769c0,0,14.489,7.495,35.876-1.465"/>
		<g>
			<path fill="none" stroke="#010202" stroke-miterlimit="10" d="M341.381,299.349c-18.813,16.331-30.852,11.8-30.852,11.8
				c-3.426-0.333-8.272-4.015-8.272-4.015c-2.894-2.729-4.986-4.328-4.986-4.328S323.801,307.681,341.381,299.349"/>
			<path fill="none" stroke="#010202" stroke-miterlimit="10" d="M299.588,303.076c0,0,5.959-4.337,11.135-2.588
				c0,0,2.624-1.544,3.953-1.318c0,0,7.175,0.223,19.705,2.598"/>
			<path fill="none" stroke="#010202" stroke-miterlimit="10" d="M299.464,304.546c0,0,1.986,9.538,12.341,11.544
				c0,0,17.06,4.264,25.354-13.106"/>
			<path fill="none" stroke="#010202" stroke-miterlimit="10" d="M299.093,300.131c0,0-3.975,1.44-2.818,5.615"/>
			<path fill="none" stroke="#010202" stroke-miterlimit="10" d="M338.888,297.185c0,0,4.129,1.323,3.172,4.767"/>
			<path opacity="0.4" fill="none" stroke="#A5A4A3" stroke-width="0.5" stroke-miterlimit="10" d="M297.271,302.806
				c0,0,15.948,12.282,41.748-1.993"/>
		</g>
	</g>
</g>
<g id="contour">
	<path fill="none" stroke="#010202" stroke-width="3" stroke-miterlimit="10" d="M278.667,82.667c0,0-52.756,25.06-59.256,79.22"/>
	<path fill="none" stroke="#010202" stroke-width="3" stroke-miterlimit="10" d="M344.5,83.5c0,0,55.5,12,60.5,75.5"/>
	<path fill="none" stroke="#010202" stroke-width="3" stroke-miterlimit="10" d="M414,166c-36.75-31.5-100.25-28.25-100.25-28.25
		c-50.75-0.5-101.08,28.92-101.08,28.92l1.66,42.66c0,0-1.08,10.92,12.92,4.92c0,0,26.41-17.59,85.08-15.92
		c-1.58-0.33,55.92-3.83,86.17,17.17c0,0,14,8.25,14.5-6.25L414,166z"/>
	<path fill="none" stroke="#010202" stroke-width="3" stroke-miterlimit="10" d="M225.52,214.82l0.73,15.68
		c0,0-7.583,4.5-0.917,29.167c0,0-0.667,22.667-7.333,65.667c0,0-4.954,50.679,2.19,77.006"/>
	<path fill="none" stroke="#010202" stroke-width="3" stroke-miterlimit="10" d="M201.33,476l-12-21.33
		c-10.003-18.664,4.003-26.336,4.003-26.336l58.207-55.774c7.541-11.107,17.793-9.893,17.793-9.893s7.434-0.743,14.149-1.091
		c5.182-0.269,9.937-0.302,10.518,0.424c0,0,14.5,19,30,19c0,0,15.66,3.34,17.33-18.33c0.169-2.188,26.17-0.17,30.67,18.33
		c0,0,17.32,84.58,14.66,107.54"/>
	<path fill="none" stroke="#010202" stroke-width="3" stroke-miterlimit="10" d="M218,440c0,0,16.829,13.5,19,19.5l23.5,38"/>
	<line fill="none" stroke="#010202" stroke-width="3" stroke-miterlimit="10" x1="225.4" y1="446.61" x2="268.92" y2="407.62"/>
	<path fill="none" stroke="#010202" stroke-width="3" stroke-miterlimit="10" d="M262.95,412.97c0,0,12.55,73.53,6.55,85.53"/>
	<path fill="none" stroke="#010202" stroke-width="3" stroke-miterlimit="10" d="M362.5,386l0.5,25.5c0,0,2,10,7.5,13.5
		c0,0,10.641,15.16-5.93,29.58c0,0-9.33,18.32-4.2,40.62"/>
	<path fill="none" stroke="#010202" stroke-width="3" stroke-miterlimit="10" d="M256.41,203.37L244,235.5c0,0-7,27,3,41l29.5,43
		c0,0,15.34,18.84,38.17,19.17c0,0,17.33,3.33,38.83-19.67l26-32.5c0,0,18.5-31,5.5-55.5l-10.66-26.06"/>
	<path fill="none" stroke="#010202" stroke-width="3" stroke-miterlimit="10" d="M302.87,337.32c0,0,0.03,19.88-7.17,26.78"/>
	<path fill="none" stroke="#010202" stroke-width="3" stroke-miterlimit="10" d="M328.12,337.38c0,0-0.921,23.9,12.979,29.01"/>
	<path fill="none" stroke="#010202" stroke-width="3" stroke-miterlimit="10" d="M382.86,437.16c0,0,14.14-18.16,13.39-22.41
		c0,0-2.301,22.52-3.4,23.51c0,0,27.15-22.76,24.15-70.76c0,0-0.5-39.5-3-48c0,0-7.5-49-7-50.5c0,0,1-49.5-1.5-50"/>
	<path fill="none" stroke="#010202" stroke-width="3" stroke-miterlimit="10" d="M237.5,436.25l2.75,3.75l1.25-5.5
		c0,0,8.625,10,10.75,9.75C251.875,444.625,252,428,252,428s11.375,15.5,14.375,15.875"/>
	<path fill="none" stroke="#010202" stroke-width="3" stroke-miterlimit="10" d="M231.5,125c0-2,77.279-42.36,162.64-1.43"/>
	<path fill="none" stroke="#010202" stroke-width="3" stroke-miterlimit="10" d="M221,155.5c0,0,74-55.5,183.5-7"/>
	<path fill="none" stroke="#010202" stroke-miterlimit="10" d="M281.75,360.75c0,0,14.5,32.25,47,36.75c0,0,23.75-9,22.75-34.5"/>
	<path fill="none" stroke="#010202" stroke-miterlimit="10" d="M228,159l1.5,41.5c0,0,0,9.25,5.75,8.75"/>
	<path fill="none" stroke="#010202" stroke-miterlimit="10" d="M252.5,150v42c0,0,0,10.75,5.75,10.75"/>
	<path fill="none" stroke="#010202" stroke-miterlimit="10" d="M288,140.5v45.25c0,0-0.25,12.25,5,12.75"/>
	<path fill="none" stroke="#010202" stroke-miterlimit="10" d="M340.25,138.25c0-0.75-1,49-1,49s1,11-6,11"/>
	<path fill="none" stroke="#010202" stroke-miterlimit="10" d="M376,146.5l-1.25,44.5c0,0,0.25,12.25-8.75,11"/>
	<path fill="none" stroke="#010202" stroke-miterlimit="10" d="M400.25,157.25l-0.5,42c0,0-1.25,13-6.75,12.5"/>
	<path fill="none" stroke="#010202" stroke-miterlimit="10" d="M233,158c0,0,6-48.667,47.333-72"/>
	<path fill="none" stroke="#010202" stroke-miterlimit="10" d="M261,146c0,2,0-34,29.333-62.667"/>
	<path fill="none" stroke="#010202" stroke-miterlimit="10" d="M291.667,138.667c0,0,8-58.666,10.667-59.333"/>
	<path fill="none" stroke="#010202" stroke-miterlimit="10" d="M334.333,137.333c0,0,0-37.333-13.333-58"/>
	<path fill="none" stroke="#010202" stroke-miterlimit="10" d="M368.333,144.667c0,0-5.332-46.666-34.666-65.333"/>
	<path fill="none" stroke="#010202" stroke-miterlimit="10" d="M391,150.667c0,0,2-36-50.667-68.667"/>
	<path fill="none" stroke="#000000" stroke-width="2" stroke-miterlimit="10" d="M306.875,268.25c0,0-5.375,6.625-0.375,10.375
		c0,0,7.875,5.875,18,0.125c0,0,4.875-2.25,1.125-10.125"/>
	<path fill="none" stroke="#000000" stroke-width="2" stroke-miterlimit="10" d="M321.5,241.25c0,0-2.25,9.875,2.125,16.25"/>
	<path fill="none" stroke="#000000" stroke-width="2" stroke-miterlimit="10" d="M262.75,242.25c0,0,7.75-9.417,17.917-7.583
		c0,0,12.167,0.667,17.833,13.833l-26.167,0.167C272.333,248.667,265,247.833,262.75,242.25z"/>
	<path fill="none" stroke="#000000" stroke-width="2" stroke-miterlimit="10" d="M371,241.75c0,0-7.75-9.417-17.916-7.583
		c0,0-12.167,0.667-17.834,13.833l26.166,0.167C361.416,248.167,368.75,247.333,371,241.75z"/>
</g>
</svg>
